<?xml version="1.0" encoding="iso-8859-1"?>
<!-- Generator: Adobe Illustrator 24.1.2, SVG Export Plug-In . SVG Version: 6.00 Build 0)  -->
<svg version="1.1" id="Layer_1" xmlns="http://www.w3.org/2000/svg" xmlns:xlink="http://www.w3.org/1999/xlink" x="0px" y="0px"
	 width="216px" height="216px" viewBox="0 0 216 216" enable-background="new 0 0 216 216" xml:space="preserve">
<path d="M135.364,63.879l-25.243-25.243c-1.172-1.172-3.071-1.172-4.243,0L80.636,63.879C78.746,65.769,80.085,69,82.757,69H102v63
	c0,1.657,1.343,3,3,3h6c1.657,0,3-1.343,3-3V69h19.243C135.915,69,137.254,65.769,135.364,63.879z"/>
<path d="M173,168H43c-2.209,0-4-1.791-4-4v-34c0-2.209,1.791-4,4-4h4c2.209,0,4,1.791,4,4v26h114v-26c0-2.209,1.791-4,4-4h4
	c2.209,0,4,1.791,4,4v34C177,166.209,175.209,168,173,168z"/>
</svg>
