<?xml version="1.0" encoding="iso-8859-1"?>
<!-- Generator: Adobe Illustrator 24.1.2, SVG Export Plug-In . SVG Version: 6.00 Build 0)  -->
<svg version="1.1" id="Layer_1" xmlns="http://www.w3.org/2000/svg" xmlns:xlink="http://www.w3.org/1999/xlink" x="0px" y="0px"
	 width="216px" height="216px" viewBox="0 0 216 216" enable-background="new 0 0 216 216" xml:space="preserve">
<path d="M108,152c-24.262,0-44-19.738-44-44s19.738-44,44-44s44,19.738,44,44S132.262,152,108,152z M108,80
	c-15.439,0-28,12.561-28,28s12.561,28,28,28s28-12.561,28-28S123.439,80,108,80z"/>
<path d="M50,116H32.544c-2.209,0-4-1.791-4-4v-8c0-2.209,1.791-4,4-4H50c2.209,0,4,1.791,4,4v8C54,114.209,52.209,116,50,116z"/>
<path d="M185,116h-17.456c-2.209,0-4-1.791-4-4v-8c0-2.209,1.791-4,4-4H185c2.209,0,4,1.791,4,4v8C189,114.209,187.209,116,185,116z
	"/>
<path d="M112,189h-8c-2.209,0-4-1.791-4-4v-17.456c0-2.209,1.791-4,4-4h8c2.209,0,4,1.791,4,4V185C116,187.209,114.209,189,112,189z
	"/>
<path d="M112,52.456h-8c-2.209,0-4-1.791-4-4V31c0-2.209,1.791-4,4-4h8c2.209,0,4,1.791,4,4v17.456
	C116,50.665,114.209,52.456,112,52.456z"/>
<path d="M54.871,167.558l-5.657-5.657c-1.562-1.562-1.562-4.095,0-5.657l12.343-12.343c1.562-1.562,4.095-1.562,5.657,0l5.657,5.657
	c1.562,1.562,1.562,4.095,0,5.657l-12.343,12.343C58.965,169.12,56.433,169.12,54.871,167.558z"/>
<path d="M150.331,72.099l-5.657-5.657c-1.562-1.562-1.562-4.095,0-5.657l12.343-12.343c1.562-1.562,4.095-1.562,5.657,0l5.657,5.657
	c1.562,1.562,1.562,4.095,0,5.657l-12.343,12.343C154.425,73.661,151.893,73.661,150.331,72.099z"/>
<path d="M157.016,168.65l-12.343-12.343c-1.562-1.562-1.562-4.095,0-5.657l5.657-5.657c1.562-1.562,4.095-1.562,5.657,0
	l12.343,12.343c1.562,1.562,1.562,4.095,0,5.657l-5.657,5.657C161.111,170.212,158.578,170.212,157.016,168.65z"/>
<path d="M60.465,72.099L48.122,59.756c-1.562-1.562-1.562-4.095,0-5.657l5.657-5.657c1.562-1.562,4.095-1.562,5.657,0l12.343,12.343
	c1.562,1.562,1.562,4.095,0,5.657l-5.657,5.657C64.559,73.661,62.027,73.661,60.465,72.099z"/>
</svg>
