<?xml version="1.0" encoding="iso-8859-1"?>
<!-- Generator: Adobe Illustrator 24.1.2, SVG Export Plug-In . SVG Version: 6.00 Build 0)  -->
<svg version="1.1" id="Layer_1" xmlns="http://www.w3.org/2000/svg" xmlns:xlink="http://www.w3.org/1999/xlink" x="0px" y="0px"
	 width="216px" height="216px" viewBox="0 0 216 216" enable-background="new 0 0 216 216" xml:space="preserve">
<g>
	<path d="M67.186,50.211l-28,56c-0.563,1.126-0.563,2.452,0,3.578l28,56c0.678,1.355,2.063,2.211,3.578,2.211H173
		c2.209,0,4-1.791,4-4V52c0-2.209-1.791-4-4-4H70.764C69.249,48,67.864,48.856,67.186,50.211z M165,156H75.708l-24-48l24-48H165V156
		z"/>
	<path d="M106.071,127.414L117,116.484l10.929,10.929c1.562,1.562,4.095,1.562,5.657,0l2.828-2.828c1.562-1.562,1.562-4.095,0-5.657
		L125.484,108l10.929-10.929c1.562-1.562,1.562-4.095,0-5.657l-2.828-2.828c-1.562-1.562-4.095-1.562-5.657,0L117,99.516
		l-10.929-10.929c-1.562-1.562-4.095-1.562-5.657,0l-2.828,2.828c-1.562,1.562-1.562,4.095,0,5.657L108.516,108l-10.929,10.929
		c-1.562,1.562-1.562,4.095,0,5.657l2.828,2.828C101.976,128.976,104.509,128.976,106.071,127.414z"/>
</g>
</svg>
