<?xml version="1.0" encoding="iso-8859-1"?>
<!-- Generator: Adobe Illustrator 24.1.2, SVG Export Plug-In . SVG Version: 6.00 Build 0)  -->
<svg version="1.1" id="Layer_1" xmlns="http://www.w3.org/2000/svg" xmlns:xlink="http://www.w3.org/1999/xlink" x="0px" y="0px"
	 width="216px" height="216px" viewBox="0 0 216 216" enable-background="new 0 0 216 216" xml:space="preserve">
<g>
	<path d="M58.478,137.529c-5.147,5.148-8.913,19.097-20.116,30.301c-18.509,18.509,24.648,14.883,44.683-3.971
		c8.181-7.699,9.421-20.259,2.246-27.527C78.27,129.22,66.241,129.766,58.478,137.529z"/>
	<path d="M181.145,38.971c-5.837-5.838-16.924-2.864-35.947,9.639c-13.734,9.027-29.548,21.916-41.268,33.636
		c-15.315,15.314-28.955,32.987-14.001,47.942c4.566,4.567,9.386,6.467,14.315,6.467c11.212,0,22.988-9.83,33.625-20.467
		c11.722-11.721,24.61-27.534,33.637-41.269C184.01,55.895,186.982,44.808,181.145,38.971z M159.385,71.447
		c-8.511,12.428-19.727,25.981-30,36.255c-9.685,9.684-17.384,15.285-22.883,16.646c-3.223,0.799-5.338,0.105-8.088-2.645
		c-2.751-2.751-3.443-4.868-2.646-8.09c1.36-5.499,6.961-13.198,16.646-22.882c10.274-10.274,23.827-21.489,36.255-30
		c12.486-8.551,19.759-11.571,23.107-12.392C170.956,51.688,167.936,58.96,159.385,71.447z"/>
</g>
</svg>
