<?xml version="1.0" encoding="iso-8859-1"?>
<!-- Generator: Adobe Illustrator 24.1.2, SVG Export Plug-In . SVG Version: 6.00 Build 0)  -->
<svg version="1.1" id="Layer_1" xmlns="http://www.w3.org/2000/svg" xmlns:xlink="http://www.w3.org/1999/xlink" x="0px" y="0px"
	 width="216px" height="216px" viewBox="0 0 216 216" enable-background="new 0 0 216 216" xml:space="preserve">
<path d="M138.246,139.062C93.754,172.644,43.355,122.24,76.94,77.751c0.231-0.305,0.508-0.583,0.814-0.813
	c44.492-33.582,94.891,16.822,61.306,61.311C138.829,138.554,138.551,138.831,138.246,139.062z M129.457,85.703
	c-31.693-23.729-67.484,12.062-43.754,43.754c0.237,0.316,0.524,0.604,0.84,0.84c31.693,23.729,67.484-12.062,43.754-43.754
	C130.061,86.227,129.773,85.939,129.457,85.703z"/>
<path d="M110,180h-4c-2.209,0-4-1.791-4-4v-10c0-2.209,1.791-4,4-4h4c2.209,0,4,1.791,4,4v10C114,178.209,112.209,180,110,180z"/>
<path d="M110,54h-4c-2.209,0-4-1.791-4-4V40c0-2.209,1.791-4,4-4h4c2.209,0,4,1.791,4,4v10C114,52.209,112.209,54,110,54z"/>
<path d="M176,114h-10c-2.209,0-4-1.791-4-4v-4c0-2.209,1.791-4,4-4h10c2.209,0,4,1.791,4,4v4C180,112.209,178.209,114,176,114z"/>
<path d="M50,114H40c-2.209,0-4-1.791-4-4v-4c0-2.209,1.791-4,4-4h10c2.209,0,4,1.791,4,4v4C54,112.209,52.209,114,50,114z"/>
<path d="M151.841,160.326l-7.072-7.071c-1.562-1.562-1.562-4.095,0-5.657l2.828-2.828c1.562-1.562,4.095-1.562,5.657,0l7.072,7.071
	c1.562,1.562,1.562,4.095,0,5.657l-2.828,2.828C155.936,161.888,153.404,161.888,151.841,160.326z"/>
<path d="M62.746,71.231l-7.072-7.071c-1.562-1.562-1.562-4.095,0-5.657l2.828-2.828c1.562-1.562,4.095-1.562,5.657,0l7.072,7.071
	c1.562,1.562,1.562,4.095,0,5.657l-2.828,2.828C66.841,72.793,64.308,72.793,62.746,71.231z"/>
<path d="M147.597,71.23l-2.828-2.828c-1.562-1.562-1.562-4.095,0-5.657l7.072-7.071c1.562-1.562,4.095-1.562,5.657,0l2.828,2.828
	c1.562,1.562,1.562,4.095,0,5.657l-7.072,7.071C151.692,72.793,149.159,72.793,147.597,71.23z"/>
<path d="M58.502,160.326l-2.828-2.828c-1.562-1.562-1.562-4.095,0-5.657l7.072-7.071c1.562-1.562,4.095-1.562,5.657,0l2.828,2.828
	c1.562,1.562,1.562,4.095,0,5.657l-7.072,7.071C62.597,161.888,60.064,161.888,58.502,160.326z"/>
</svg>
