<?xml version="1.0" encoding="iso-8859-1"?>
<!-- Generator: Adobe Illustrator 24.1.2, SVG Export Plug-In . SVG Version: 6.00 Build 0)  -->
<svg version="1.1" id="Layer_1" xmlns="http://www.w3.org/2000/svg" xmlns:xlink="http://www.w3.org/1999/xlink" x="0px" y="0px"
	 width="216px" height="216px" viewBox="0 0 216 216" enable-background="new 0 0 216 216" xml:space="preserve">
<g>
	<g>
		<path d="M163,121v25c0,4.418-3.582,8-8,8H64c-4.418,0-8-3.582-8-8v-25c0-2.209-1.791-4-4-4h-8c-2.209,0-4,1.791-4,4v25
			c0,13.255,10.745,24,24,24h91c13.255,0,24-10.745,24-24v-25c0-2.209-1.791-4-4-4h-8C164.791,117,163,118.791,163,121z"/>
	</g>
	<g>
		<path d="M127.757,109.243H116v-68c0-2.209-1.791-4-4-4h-8c-2.209,0-4,1.791-4,4v68H88.243c-2.673,0-4.011,3.231-2.121,5.121
			l19.757,19.757c1.172,1.172,3.071,1.172,4.243,0l19.757-19.757C131.769,112.474,130.43,109.243,127.757,109.243z"/>
	</g>
</g>
</svg>
