<?xml version="1.0" encoding="iso-8859-1"?>
<!-- Generator: Adobe Illustrator 24.1.2, SVG Export Plug-In . SVG Version: 6.00 Build 0)  -->
<svg version="1.1" id="Layer_1" xmlns="http://www.w3.org/2000/svg" xmlns:xlink="http://www.w3.org/1999/xlink" x="0px" y="0px"
	 width="216px" height="216px" viewBox="0 0 216 216" enable-background="new 0 0 216 216" xml:space="preserve">
<path d="M130.828,111H114V49c0-2.209-1.791-4-4-4h-4c-2.209,0-4,1.791-4,4v62H85.172c-3.564,0-5.348,4.309-2.828,6.828
	l22.828,22.828c1.562,1.562,4.095,1.562,5.657,0l22.828-22.828C136.177,115.309,134.392,111,130.828,111z"/>
<path d="M173,168H43c-2.209,0-4-1.791-4-4v-34c0-2.209,1.791-4,4-4h4c2.209,0,4,1.791,4,4v26h114v-26c0-2.209,1.791-4,4-4h4
	c2.209,0,4,1.791,4,4v34C177,166.209,175.209,168,173,168z"/>
</svg>
