<?xml version="1.0" encoding="iso-8859-1"?>
<!-- Generator: Adobe Illustrator 24.1.2, SVG Export Plug-In . SVG Version: 6.00 Build 0)  -->
<svg version="1.1" id="Layer_1" xmlns="http://www.w3.org/2000/svg" xmlns:xlink="http://www.w3.org/1999/xlink" x="0px" y="0px"
	 width="480px" height="480px" viewBox="0 0 480 480" enable-background="new 0 0 480 480" xml:space="preserve">
<rect fill="#EE1F50" width="480" height="480"/>
<g>
	<path d="M142.375,383.014V57.995H243.31c92.996,0,147.906,60.624,147.906,161.714c-0.157,102.206-55.863,163.305-153.622,163.305
		H142.375z M235.85,356.355c83.792,0,126.64-51.737,126.64-136.645c-0.157-84.109-42.052-135.053-120.927-135.053h-69.511v271.698
		H235.85z"/>
</g>
<path fill="#FFFFFF" d="M232.135,388.205c-6.031-1.657-10.853-5.617-14.133-10.853c-2.634-4.242-3.48-9.014-4.109-13.851
	c-0.417-3.19-0.171-6.338,0.629-9.299c-1.135-11.51-2.783-22.958-4.539-34.393c-2.353-15.442-4.54-30.885-6.329-46.41
	c-3.38-29.543-5.468-59.318-6.181-89.059c-0.464-19.436-0.679-38.872-0.762-58.323c-0.033-8.815-0.033-17.63-0.05-26.445
	c-0.016-10.364,0.014-20.84-0.545-31.195c-0.158-2.039-0.18-4.008-0.184-6.048c-0.366-1.65-0.495-3.098-0.117-4.909
	c0.003,0.002,0.006,0.005,0.01,0.007c0.196-0.853,0.597-1.686,1.299-2.492c3.347-3.811,9.08-4.093,12.377,0
	c4.805,5.981,5.766,14.316,7.241,21.606c0.861,4.192,1.16,8.567,1.74,12.792c0.994,7.389,1.673,14.763,2.336,22.185
	c1.342,14.829,2.419,29.659,3.563,44.488c1.094,14.15,2.253,28.334,3.844,42.433c1.044,9.328,2.088,18.64,3.148,27.953
	c0.845,7.522,2.237,15.011,3.364,22.5c1.635,10.75,3.757,21.377,5.798,32.059c2.85,12.526,5.8,25.035,9.114,37.449
	c2.545,9.482,4.976,19.007,7.673,28.45c2.017,3.016,3.327,6.472,3.926,10.155c0.38,2.301,0.68,4.533,0.764,6.794
	c0.075,1.23,0.049,2.461-0.07,3.681c-0.031,0.377-0.068,0.758-0.114,1.14c-0.009-0.002-0.017-0.002-0.026-0.004
	c-1.031,7.004-5.171,13.522-11.457,17.203c-3.639,2.128-7.8,3.221-11.972,3.221C236.274,389.04,234.174,388.764,232.135,388.205z"/>
<path fill="#FFFFFF" d="M167.718,438.54c-5.021-1.127-10.29-3.38-14.73-5.965c-5.468-3.181-10.306-6.926-14.415-11.731
	c-7.82-9.113-11.234-21.208-9.626-33.088c1.276-9.378,5.915-18.077,11.051-25.881c3.397-5.17,7.605-9.328,13.388-11.764
	c6.975-2.949,15.028-2.949,22.004,0c12.605,5.329,19.234,19.029,16.571,31.964c1.462-0.381,2.911-0.791,4.36-1.233
	c3.241-1.235,6.39-2.614,9.508-4.108c5.365-2.893,10.547-6.053,15.625-9.409c14.412-10.083,27.752-21.438,41.099-32.878
	c5.615-5.247,11.244-10.467,16.873-15.701c5.766-5.352,11.085-11.267,16.603-16.884c-0.762,0.862-1.508,1.707-2.253,2.568
	c9.772-11.112,19.59-22.041,28.098-34.186c3.164-4.84,6.139-9.762,8.83-14.882c1.87-3.939,3.585-7.929,5.135-12.014
	c1.175-3.644,2.214-7.299,3.09-11.019c0.508-2.916,0.888-5.831,1.161-8.786c0.067-2.527,0.066-5.025-0.009-7.542
	c-0.318-3.402-0.783-6.758-1.381-10.128c-0.914-4.025-1.987-7.984-3.256-11.927c-1.262-3.301-2.633-6.524-4.123-9.729
	c-2.317-4.404-4.827-8.656-7.557-12.816c-3.36-4.745-6.909-9.308-10.685-13.719c-3.54-3.855-7.227-7.541-11.07-11.08
	c-4.916-4.239-10.02-8.184-15.356-11.904c-7.435-4.913-15.094-9.386-23.02-13.463c-8.838-4.293-17.899-7.993-27.155-11.31
	c-10.133-3.428-20.38-6.311-30.844-8.559c-7.549-1.434-15.116-2.507-22.784-3.122c-14.195-0.761-28.401-0.058-42.581,0.768
	c-1.637,0.167-3.272,0.337-4.905,0.514c0.007,0.108,0.012,0.216,0.012,0.326c0,3.082-2.668,5.07-5.584,4.871
	c-4.408-0.315-8.815-0.696-13.239-1.011c0.158,0.012,0.326,0.016,0.489,0.023c-2.779-0.167-5.535-0.271-8.308-0.187
	c-1.872,0.428-3.746,0.865-5.568,1.432c-3.978,1.655-8.728-0.183-10.871-3.819c-2.668-4.474-1.922-10.439,1.823-14.183
	c5.07-5.07,12.079-7.738,18.524-10.571c2.254-0.994,4.805-1.541,7.141-2.253c1.707-0.53,3.38-1.077,5.103-1.491
	c4.954-1.193,9.859-2.452,14.879-3.297c10.836-1.823,21.656-3.248,32.591-4.341c25.251-2.552,50.817,2.137,75.041,9.014
	c24.655,7.009,48.398,17.414,69.789,31.597c20.479,13.554,37.562,31.117,51.182,51.497c7.207,10.786,12.277,22.749,16.072,35.11
	c4.175,13.554,5.782,28.399,4.325,42.5c-2.668,25.848-13.537,50.055-28.251,71.264c-7.125,10.273-15.078,19.734-23.048,29.344
	c-5.716,6.909-12.079,13.322-18.193,19.883c-5.534,5.932-11.582,11.433-17.381,17.116c-5.898,5.749-12.228,11.101-18.342,16.619
	c-6.18,5.551-12.708,10.704-19.104,15.989c-8.798,7.307-18.524,13.769-28.317,19.634c-10.588,6.346-22.169,11.383-34.215,14.084
	c-5.501,1.243-10.952,1.756-16.569,2.021c-0.615,0.029-1.23,0.043-1.844,0.043C178.185,440.737,172.872,439.699,167.718,438.54z"/>
<g>
</g>
<g>
</g>
<g>
</g>
<g>
</g>
<g>
</g>
<g>
</g>
</svg>
